<svg fill="none" height="2005" width="2500" xmlns="http://www.w3.org/2000/svg"
    viewBox="670.088 32.46226489559854 2224.1720000000005 2666.4877351044024">
    <g fill="#61dafb">
        <path
            d="M2870 1250.22c0-145.34-182.01-283.079-461.07-368.495 64.4-284.424 35.78-510.711-90.34-583.159-29.07-16.994-63.05-25.044-100.17-25.044v99.728c20.57 0 37.12 4.025 50.98 11.627 60.82 34.882 87.21 167.703 66.63 338.536-4.91 42.038-12.96 86.311-22.8 131.479-87.66-21.466-183.36-38.012-283.98-48.745-60.37-82.734-122.98-157.865-186.04-223.604 145.79-135.504 282.64-209.741 375.66-209.741v-99.727c-122.99 0-283.98 87.653-446.76 239.703-162.79-151.156-323.78-237.914-446.76-237.914v99.727c92.57 0 229.86 73.79 375.65 208.399-62.61 65.74-125.22 140.423-184.7 223.157-101.07 10.733-196.77 27.279-284.42 49.192-10.29-44.72-17.89-88.1-23.26-129.69-21.01-170.833 4.92-303.654 65.3-338.983 13.41-8.05 30.85-11.627 51.43-11.627v-99.728c-37.57 0-71.56 8.05-101.07 25.044-125.67 72.447-153.84 298.287-89 581.817C857.119 968.036 676 1105.33 676 1250.22c0 145.35 182.013 283.09 461.07 368.5-64.4 284.43-35.78 510.71 90.34 583.16 29.07 16.99 63.05 25.04 100.62 25.04 122.98 0 283.98-87.65 446.76-239.7 162.78 151.16 323.78 237.92 446.76 237.92 37.56 0 71.55-8.05 101.07-25.05 125.66-72.45 153.84-298.29 88.99-581.81 277.27-85.42 458.39-223.16 458.39-368.06zm-582.26-298.284c-16.55 57.694-37.12 117.164-60.38 176.644-18.33-35.77-37.56-71.55-58.58-107.33-20.57-35.773-42.49-70.655-64.4-104.643 63.5 9.391 124.77 21.019 183.36 35.329zm-204.83 476.274c-34.88 60.38-70.65 117.62-107.77 170.84-66.64 5.81-134.16 8.94-202.14 8.94-67.53 0-135.06-3.13-201.24-8.5-37.12-53.22-73.35-110.01-108.23-169.94-33.99-58.58-64.84-118.06-93.02-177.98 27.73-59.93 59.03-119.86 92.58-178.44 34.88-60.37 70.65-117.616 107.77-170.834 66.64-5.814 134.16-8.944 202.14-8.944 67.53 0 135.06 3.13 201.24 8.497 37.12 53.218 73.35 110.011 108.23 169.941 33.99 58.58 64.84 118.06 93.02 177.99-28.18 59.92-59.03 119.85-92.58 178.43zm144.45-58.13a1918.154 1918.154 0 0 1 61.72 177.98c-58.59 14.31-120.3 26.39-184.25 35.78 21.91-34.43 43.82-69.76 64.4-105.99 20.57-35.77 39.8-72 58.13-107.77zm-453.47 477.17c-41.59-42.94-83.18-90.79-124.32-143.11 40.25 1.79 81.39 3.13 122.98 3.13 42.04 0 83.63-.89 124.33-3.13a1746.499 1746.499 0 0 1-122.99 143.11zm-332.72-263.41c-63.5-9.39-124.77-21.02-183.35-35.33 16.54-57.69 37.12-117.17 60.37-176.65 18.34 35.78 37.57 71.56 58.58 107.33 21.02 35.78 42.49 70.66 64.4 104.65zm330.49-930.638c41.59 42.931 83.18 90.783 124.32 143.106-40.25-1.789-81.39-3.13-122.98-3.13-42.04 0-83.63.894-124.32 3.13a1746.3 1746.3 0 0 1 122.98-143.106zm-330.94 263.405c-21.91 34.435-43.82 69.764-64.39 105.983-20.57 35.78-39.8 71.56-58.14 107.33a1914.757 1914.757 0 0 1-61.71-177.984c58.58-13.863 120.29-25.938 184.24-35.329zM1036 1476.51c-158.309-67.53-260.72-156.07-260.72-226.29 0-70.21 102.411-159.2 260.72-226.28 38.46-16.55 80.5-31.308 123.88-45.171 25.49 87.651 59.03 178.881 100.62 272.351-41.14 93.02-74.24 183.8-99.28 271.01-44.27-13.87-86.31-29.07-125.22-45.62zm240.6 639.06c-60.82-34.88-87.21-167.7-66.63-338.54 4.92-42.03 12.96-86.31 22.8-131.48 87.66 21.47 183.36 38.02 283.98 48.75 60.37 82.73 122.98 157.86 186.04 223.6-145.79 135.51-282.64 209.74-375.66 209.74-20.12-.44-37.11-4.47-50.53-12.07zm1060.78-340.77c21.01 170.83-4.92 303.65-65.3 338.98-13.41 8.05-30.85 11.63-51.43 11.63-92.57 0-229.86-73.79-375.65-208.4 62.61-65.74 125.22-140.42 184.7-223.16 101.07-10.73 196.77-27.28 284.42-49.19 10.29 45.17 18.34 88.55 23.26 130.14zm172.17-298.29c-38.46 16.55-80.5 31.31-123.88 45.17-25.49-87.65-59.03-178.88-100.62-272.35 41.15-93.02 74.24-183.8 99.28-271.009 44.28 13.864 86.31 29.069 125.67 45.619 158.31 67.52 260.72 156.07 260.72 226.28-.45 70.22-102.86 159.21-261.17 226.29z" />

    </g>
</svg>