<svg width="252" height="53" viewBox="0 0 252 53" fill="none" xmlns="http://www.w3.org/2000/svg">
<g clip-path="url(#clip0_2_2)">
<path d="M70.949 33.609C70.249 33.624 69.736 33.648 69.225 33.648C59.4044 33.648 49.5847 33.6497 39.766 33.653C39.2197 33.5593 38.6581 33.6235 38.147 33.838C37.9581 34.2446 37.9171 34.7044 38.031 35.138C38.3678 38.8451 40.1534 42.2696 43 44.668C44.9161 46.3123 47.2885 47.3324 49.8 47.592C52.2776 47.9327 54.8013 47.6193 57.1204 46.6831C59.4394 45.7468 61.4733 44.2203 63.02 42.255C63.737 41.397 64.31 40.418 64.952 39.498C65.073 39.326 65.217 39.172 65.394 38.956C66.8706 39.6131 68.3116 40.3474 69.711 41.156C69.6599 41.4149 69.5825 41.6679 69.48 41.911C68.2514 44.1536 66.6806 46.1907 64.824 47.949C62.3623 50.2891 59.2491 51.8281 55.895 52.363C52.6093 52.9633 49.2308 52.8194 46.008 51.942C42.5041 50.8401 39.3861 48.7636 37.0186 45.9553C34.651 43.147 33.1317 39.7228 32.638 36.083C32.0053 32.1269 32.5622 28.0721 34.238 24.433C35.3363 21.9523 36.9527 19.7354 38.9787 17.9311C41.0046 16.1268 43.3932 14.7769 45.984 13.972C47.6837 13.4642 49.4491 13.2104 51.223 13.219C53.2996 13.1389 55.3757 13.3887 57.374 13.959C60.3609 14.8237 63.0785 16.4344 65.2709 18.6394C67.4634 20.8445 69.0585 23.5713 69.906 26.563C70.454 28.4745 70.8019 30.4377 70.944 32.421C70.978 32.758 70.949 33.1 70.949 33.609ZM64.739 28.809C64.8134 28.2902 64.7385 27.7609 64.523 27.283C63.9221 25.3542 62.8559 23.6028 61.4184 22.1832C59.9809 20.7637 58.2163 19.7196 56.28 19.143C54.1039 18.4071 51.7836 18.2014 49.512 18.543C46.7419 18.8586 44.169 20.1319 42.238 22.143C40.6924 23.8434 39.5359 25.8602 38.849 28.053C38.8095 28.2868 38.8062 28.5252 38.839 28.76C40.188 28.95 54.379 29.014 63.653 28.881C63.991 28.879 64.329 28.837 64.739 28.809Z" fill="#fff"/>
<path d="M120.272 51.343C118.564 51.5698 116.834 51.5732 115.125 51.353C115.068 51.1231 115.031 50.889 115.012 50.653C114.997 49.615 115.007 48.577 114.999 47.539C114.999 47.156 114.966 46.773 114.94 46.277C114.719 46.3244 114.506 46.4039 114.308 46.513C113.977 46.788 113.684 47.113 113.37 47.413C111.072 49.662 108.243 51.2935 105.145 52.156C103.509 52.5686 101.823 52.7467 100.137 52.685C93.237 52.541 88.173 49.165 84.437 43.585C82.5014 40.6386 81.455 37.1972 81.423 33.672C81.2298 29.4041 82.4371 25.1901 84.861 21.672C86.3152 19.4851 88.213 17.6284 90.4313 16.2224C92.6495 14.8164 95.1386 13.8927 97.737 13.511C99.9621 13.1736 102.22 13.1065 104.461 13.311C105.713 13.4086 106.943 13.6945 108.11 14.159C110.627 15.0542 112.919 16.4872 114.826 18.3583C116.733 20.2293 118.209 22.4934 119.152 24.993C119.836 26.8636 120.221 28.8304 120.293 30.821C120.398 33.021 120.393 35.23 120.393 37.435C120.383 41.585 120.342 45.735 120.308 49.889C120.306 50.357 120.288 50.827 120.272 51.343ZM115.282 32.611C115.283 31.2541 115.076 29.9051 114.668 28.611C113.737 25.38 111.683 22.5876 108.876 20.7367C106.069 18.8857 102.693 18.0979 99.357 18.515C96.3676 18.8415 93.5769 20.1711 91.44 22.287C89.6514 23.9691 88.3115 26.0715 87.5419 28.4031C86.7722 30.7347 86.5973 33.2216 87.033 35.638C87.871 41.396 93.953 48.738 102.763 47.596C105.31 47.3048 107.724 46.305 109.731 44.71C113.456 41.736 115.272 37.843 115.285 32.612L115.282 32.611Z" fill="#fff"/>
<path d="M177.586 13.071C179.227 13.324 180.853 13.6638 182.458 14.089C182.643 14.6056 182.701 15.1591 182.628 15.703C182.577 21.022 182.492 26.341 182.466 31.66C182.413 34.211 182.547 36.7625 182.866 39.294C183.083 40.8831 183.635 42.408 184.485 43.768C185.095 44.7433 185.919 45.5673 186.894 46.1776C187.87 46.7879 188.971 47.1686 190.115 47.291C197.541 48.427 202.934 42.563 203.952 37.144C204.129 36.2536 204.237 35.351 204.276 34.444C204.366 31.379 204.546 28.316 204.397 25.244C204.256 22.394 204.322 19.535 204.305 16.682C204.318 16.4168 204.347 16.1526 204.392 15.891C204.584 15.7877 204.792 15.7142 205.006 15.673C206.64 15.665 208.251 15.173 209.968 15.424C210.039 15.7125 210.086 16.0065 210.107 16.303C210.089 19.503 210.053 22.703 210.025 25.903C209.994 29.621 209.956 33.342 209.935 37.06C209.909 41.428 209.899 45.796 209.878 50.16C209.878 50.543 209.842 50.926 209.821 51.327C208.97 51.5478 208.086 51.6105 207.213 51.512C206.398 51.543 205.584 51.502 204.882 51.491C204.73 51.3673 204.615 51.2055 204.546 51.0222C204.478 50.8388 204.46 50.6406 204.494 50.448C204.481 49.41 204.494 48.372 204.481 47.334C204.52 47.1305 204.513 46.9209 204.459 46.7207C204.406 46.5205 204.308 46.335 204.173 46.178C203.998 46.2586 203.834 46.3593 203.682 46.478C203.243 46.897 202.839 47.349 202.4 47.765C200.095 50.0829 197.128 51.6304 193.908 52.195C189.108 52.953 184.784 51.995 181.282 48.405C179.508 46.5461 178.313 44.2118 177.841 41.686C177.557 40.2453 177.366 38.788 177.268 37.323C177.068 34.643 177.134 31.968 177.188 29.286C177.288 24.358 177.288 19.427 177.345 14.496C177.253 14.0074 177.338 13.502 177.586 13.071Z" fill="#fff"/>
<path d="M221.219 15.48C223.313 15.4168 225.408 15.5693 227.471 15.935C227.664 16.184 227.91 16.48 228.129 16.793C230.202 19.7763 232.276 22.7597 234.35 25.743C234.61 26.118 234.784 26.596 235.314 26.761C235.716 26.4285 236.03 26.0024 236.229 25.52C238.454 21.7607 240.674 17.9997 242.889 14.237C243.107 13.867 243.344 13.505 243.547 13.181C245.457 12.9858 247.381 12.9607 249.295 13.106C249.472 13.553 249.123 13.833 248.938 14.147C246.597 18.1377 244.249 22.1237 241.892 26.105C241.013 27.595 240.135 29.0853 239.258 30.576C239.042 30.943 238.852 31.329 238.613 31.768C238.926 32.256 239.219 32.732 239.528 33.194C243.3 38.8393 247.071 44.4853 250.842 50.132C251.171 50.4956 251.399 50.9384 251.505 51.417C251.328 51.4613 251.147 51.4921 250.965 51.509C249.279 51.517 247.591 51.499 245.903 51.524C245.667 51.5448 245.43 51.4961 245.221 51.3838C245.013 51.2715 244.842 51.1005 244.729 50.892C244.439 50.409 244.11 49.954 243.801 49.481C241.268 45.609 238.734 41.7367 236.201 37.864C235.949 37.479 235.782 36.998 235.273 36.803C234.795 37.003 234.623 37.471 234.373 37.856C232.69 40.4227 231.015 42.9963 229.35 45.577C228.315 47.1723 227.278 48.767 226.241 50.361C226.007 50.721 225.753 51.068 225.541 51.371C223.493 51.5532 221.435 51.5746 219.384 51.435C219.142 51.096 219.43 50.875 219.584 50.644C221.195 48.1827 222.811 45.7253 224.43 43.272C226.645 39.914 228.86 36.5573 231.075 33.202C231.242 32.948 231.394 32.686 231.575 32.444C231.726 32.2596 231.806 32.0272 231.801 31.7888C231.796 31.5505 231.706 31.3218 231.547 31.144C230.738 29.97 229.962 28.775 229.165 27.588C226.708 23.9267 224.252 20.2633 221.796 16.598C221.568 16.25 221.221 15.95 221.219 15.48Z" fill="#fff"/>
<path d="M134.243 51.336C134.233 50.776 134.217 50.262 134.217 49.748C134.217 40.0587 134.217 30.369 134.217 20.679C134.275 20.1024 134.223 19.5201 134.063 18.963C132.616 18.647 131.136 18.994 129.728 18.755C129.414 17.2981 129.379 15.7951 129.623 14.325C130.283 13.909 131.036 14.155 131.751 14.112C132.481 14.066 133.213 14.084 133.845 14.076C133.993 13.9519 134.104 13.7909 134.169 13.6095C134.234 13.428 134.25 13.2325 134.215 13.043C134.219 11.66 134.219 10.275 134.219 8.89C134.232 7.63583 134.4 6.38809 134.719 5.175C134.802 4.83958 134.905 4.50935 135.027 4.186C135.43 3.00822 136.185 1.9824 137.189 1.2468C138.194 0.511192 139.399 0.101171 140.644 0.0719986C142.198 -0.064261 143.762 -0.0125507 145.303 0.226002C146.197 0.372002 147.103 0.447 148.003 0.57C148.388 0.627024 148.769 0.703455 149.146 0.799C149.889 0.984 149.958 1.071 149.999 1.86C150.017 2.204 150.009 2.551 150.009 2.898C150.009 3.677 150.019 4.455 150.004 5.234C149.999 5.524 149.94 5.817 149.896 6.172C149.581 6.15212 149.269 6.10731 148.961 6.038C147.375 5.6138 145.758 5.31291 144.125 5.138C143.609 5.0811 143.089 5.06405 142.57 5.087C141.957 5.03759 141.349 5.2218 140.867 5.60263C140.384 5.98347 140.064 6.5327 139.97 7.14C139.813 7.98795 139.703 8.84392 139.641 9.704C139.582 10.827 139.605 11.952 139.62 13.078C139.647 13.3603 139.698 13.6397 139.774 13.913C140.233 14.1096 140.738 14.1727 141.231 14.095C144.086 14.105 146.943 14.095 149.798 14.105C150.224 14.0197 150.667 14.0881 151.047 14.298C151.275 15.7404 151.28 17.2091 151.062 18.653C150.731 18.931 150.322 18.82 149.947 18.823C147.047 18.833 144.147 18.823 141.247 18.833C140.776 18.7623 140.295 18.8091 139.847 18.969C139.627 19.3483 139.54 19.7905 139.6 20.225C139.592 21.176 139.595 22.125 139.595 23.08C139.595 31.9467 139.593 40.8133 139.59 49.68C139.672 50.2297 139.617 50.7912 139.428 51.314C137.711 51.5812 135.963 51.5886 134.243 51.336Z" fill="#fff"/>
<path d="M22.529 18.45C21.468 19.704 20.36 20.783 19.229 21.927C18.91 21.691 18.629 21.503 18.368 21.29C17.3163 20.3889 16.151 19.6294 14.902 19.031C13.805 18.5115 12.6003 18.2596 11.387 18.296C10.1672 18.3335 8.9992 18.7982 8.08702 19.609C7.18382 20.4029 6.63005 21.521 6.54581 22.7206C6.46157 23.9202 6.85365 25.1046 7.63702 26.017C8.18592 26.6285 8.80908 27.169 9.49202 27.626C10.905 28.541 12.38 29.36 13.829 30.226C14.906 30.868 15.998 31.482 17.049 32.166C18.1705 32.9045 19.1923 33.7844 20.089 34.784C21.5693 36.3348 22.4226 38.379 22.484 40.522C22.5464 41.5567 22.5068 42.595 22.366 43.622C21.9705 45.8332 20.9063 47.87 19.317 49.4575C17.7277 51.045 15.6897 52.1069 13.478 52.5C11.4497 52.9026 9.35529 52.8252 7.36216 52.2741C5.36903 51.723 3.53242 50.7134 1.99902 49.326C1.24423 48.6982 0.57219 47.9771 -0.000976562 47.18C0.946587 45.7979 2.07229 44.5467 3.34702 43.459C3.67302 43.772 4.01202 44.094 4.34702 44.42C5.34669 45.4439 6.52373 46.2781 7.82102 46.882C9.44116 47.6525 11.2929 47.7811 13.004 47.242C14.5546 46.7698 15.8667 45.7241 16.673 44.318C17.2702 43.3268 17.5206 42.1652 17.3848 41.0161C17.249 39.8669 16.7347 38.7956 15.923 37.971C15.4119 37.4418 14.8391 36.9758 14.217 36.583C12.783 35.699 11.301 34.895 9.84602 34.044C8.72602 33.394 7.59502 32.757 6.50802 32.053C5.90469 31.6326 5.32947 31.1733 4.78602 30.678C1.33902 27.75 0.939023 22.77 2.14602 19.62C2.68362 18.1233 3.59021 16.7864 4.78184 15.7332C5.97346 14.68 7.41159 13.9446 8.96302 13.595C10.426 13.1846 11.9561 13.0695 13.464 13.2565C14.9719 13.4435 16.4275 13.9287 17.746 14.684C19.3238 15.5881 20.7884 16.6768 22.109 17.927C22.2582 18.0937 22.3984 18.2683 22.529 18.45Z" fill="#fff"/>
<path d="M161.024 2.09399C162.721 2.69527 164.323 3.53539 165.783 4.589C165.806 4.951 165.85 5.378 165.855 5.804C165.909 11.204 165.96 16.604 166.007 22.004C166.056 27.883 166.087 33.759 166.135 39.636C166.163 43.051 166.215 46.463 166.251 49.878C166.256 50.346 166.236 50.816 166.225 51.291C165.376 51.5388 164.485 51.6112 163.607 51.504C162.795 51.537 161.978 51.491 161.107 51.478C161.032 51.2155 160.974 50.9482 160.935 50.678C160.907 50.334 160.92 49.987 160.92 49.64C160.92 34.2973 160.922 18.955 160.925 3.613C160.874 3.10467 160.907 2.59134 161.024 2.09399Z" fill="#fff"/>
</g>
<defs>
<clipPath id="clip0_2_2">
<rect width="251.502" height="52.726" fill="white"/>
</clipPath>
</defs>
</svg>
